<svg xmlns="http://www.w3.org/2000/svg" width="756" height="48" viewBox="0 0 756 48"><g id="svgGroup" stroke-linecap="round" fill-rule="evenodd" font-size="9pt" stroke="#000" stroke-width="0.25mm" fill="white" style="stroke:#000;stroke-width:0.25mm;fill:white"><path d="M 528 42 L 522 42 L 522 12 L 558 12 L 558 18 L 564 18 L 564 42 L 552 42 L 552 18 L 546 18 L 546 42 L 534 42 L 534 18 L 528 18 L 528 42 Z M 720 42 L 714 42 L 714 12 L 750 12 L 750 18 L 756 18 L 756 42 L 744 42 L 744 18 L 738 18 L 738 42 L 726 42 L 726 18 L 720 18 L 720 42 Z M 54 42 L 42 42 L 42 0 L 54 0 L 54 12 L 78 12 L 78 18 L 84 18 L 84 42 L 72 42 L 72 18 L 54 18 L 54 42 Z M 150 42 L 138 42 L 138 0 L 174 0 L 174 6 L 180 6 L 180 24 L 168 24 L 168 30 L 174 30 L 174 36 L 180 36 L 180 42 L 162 42 L 162 36 L 156 36 L 156 30 L 150 30 L 150 42 Z M 270 48 L 240 48 L 240 42 L 264 42 L 264 36 L 240 36 L 240 30 L 234 30 L 234 18 L 240 18 L 240 12 L 276 12 L 276 42 L 270 42 L 270 48 Z M 414 48 L 384 48 L 384 42 L 408 42 L 408 36 L 384 36 L 384 30 L 378 30 L 378 18 L 384 18 L 384 12 L 420 12 L 420 42 L 414 42 L 414 48 Z M 660 42 L 624 42 L 624 36 L 618 36 L 618 18 L 624 18 L 624 12 L 660 12 L 660 18 L 630 18 L 630 36 L 660 36 L 660 42 Z M 126 42 L 96 42 L 96 36 L 90 36 L 90 18 L 96 18 L 96 12 L 126 12 L 126 18 L 132 18 L 132 30 L 102 30 L 102 36 L 126 36 L 126 42 Z M 228 42 L 192 42 L 192 36 L 186 36 L 186 30 L 192 30 L 192 24 L 216 24 L 216 18 L 192 18 L 192 12 L 222 12 L 222 18 L 228 18 L 228 42 Z M 342 42 L 330 42 L 330 12 L 366 12 L 366 18 L 372 18 L 372 42 L 360 42 L 360 18 L 342 18 L 342 42 Z M 462 42 L 432 42 L 432 36 L 426 36 L 426 30 L 438 30 L 438 36 L 456 36 L 456 0 L 468 0 L 468 36 L 462 36 L 462 42 Z M 24 42 L 12 42 L 12 6 L 0 6 L 0 0 L 36 0 L 36 6 L 24 6 L 24 42 Z M 324 42 L 288 42 L 288 36 L 300 36 L 300 18 L 294 18 L 294 12 L 312 12 L 312 36 L 324 36 L 324 42 Z M 516 42 L 480 42 L 480 36 L 492 36 L 492 18 L 486 18 L 486 12 L 504 12 L 504 36 L 516 36 L 516 42 Z M 702 42 L 672 42 L 672 36 L 666 36 L 666 18 L 672 18 L 672 12 L 702 12 L 702 18 L 708 18 L 708 36 L 702 36 L 702 42 Z M 150 6 L 150 24 L 162 24 L 162 18 L 168 18 L 168 6 L 150 6 Z M 678 18 L 678 36 L 696 36 L 696 18 L 678 18 Z M 246 18 L 246 30 L 264 30 L 264 18 L 246 18 Z M 390 18 L 390 30 L 408 30 L 408 18 L 390 18 Z M 102 18 L 102 24 L 120 24 L 120 18 L 102 18 Z M 198 30 L 198 36 L 216 36 L 216 30 L 198 30 Z M 594 42 L 582 42 L 582 30 L 594 30 L 594 42 Z M 312 6 L 300 6 L 300 0 L 312 0 L 312 6 Z M 504 6 L 492 6 L 492 0 L 504 0 L 504 6 Z" vector-effect="non-scaling-stroke"/></g></svg>
